<svg width="55" height="55" viewBox="0 0 55 55" fill="none" xmlns="http://www.w3.org/2000/svg">
<path d="M22.8407 27.5237C22.8407 25.0095 24.8778 22.9709 27.3912 22.9709C29.9047 22.9709 31.9428 25.0095 31.9428 27.5237C31.9428 30.0379 29.9047 32.0766 27.3912 32.0766C24.8778 32.0766 22.8407 30.0379 22.8407 27.5237ZM20.3802 27.5237C20.3802 31.397 23.5191 34.5367 27.3912 34.5367C31.2634 34.5367 34.4023 31.397 34.4023 27.5237C34.4023 23.6504 31.2634 20.5107 27.3912 20.5107C23.5191 20.5107 20.3802 23.6504 20.3802 27.5237ZM33.0413 20.2327C33.0412 20.5568 33.1372 20.8737 33.3171 21.1433C33.497 21.4129 33.7528 21.623 34.0521 21.7472C34.3514 21.8714 34.6808 21.904 34.9988 21.8409C35.3166 21.7778 35.6086 21.6218 35.8379 21.3927C36.0671 21.1635 36.2232 20.8716 36.2866 20.5537C36.3499 20.2358 36.3176 19.9062 36.1937 19.6067C36.0698 19.3072 35.8599 19.0512 35.5905 18.871C35.3212 18.6908 35.0045 18.5946 34.6804 18.5945C34.2461 18.5947 33.8289 18.7673 33.5217 19.0744C33.2144 19.3816 33.0417 19.7982 33.0413 20.2327ZM21.8752 38.6406C20.544 38.5799 19.8206 38.3582 19.3397 38.1708C18.7022 37.9226 18.2474 37.6269 17.7692 37.1492C17.2909 36.6715 16.9949 36.217 16.748 35.5793C16.5604 35.0986 16.3387 34.3747 16.2782 33.0431C16.212 31.6035 16.1988 31.1711 16.1988 27.5238C16.1988 23.8766 16.2132 23.4454 16.2782 22.0045C16.3388 20.673 16.5623 19.9505 16.748 19.4683C16.9961 18.8306 17.2916 18.3757 17.7692 17.8973C18.2468 17.419 18.7012 17.1229 19.3397 16.8758C19.8203 16.6883 20.544 16.4665 21.8752 16.406C23.3143 16.3398 23.7467 16.3265 27.3912 16.3265C31.0358 16.3265 31.4685 16.3408 32.909 16.406C34.2401 16.4666 34.9624 16.69 35.4444 16.8758C36.0819 17.1229 36.5367 17.4197 37.015 17.8973C37.4932 18.375 37.788 18.8306 38.0362 19.4683C38.2236 19.949 38.4454 20.673 38.5059 22.0045C38.5722 23.4454 38.5854 23.8766 38.5854 27.5238C38.5854 31.1711 38.5722 31.6023 38.5059 33.0431C38.4453 34.3747 38.2225 35.0984 38.0362 35.5793C37.788 36.217 37.4925 36.672 37.015 37.1492C36.5374 37.6265 36.0819 37.9226 35.4444 38.1708C34.9639 38.3583 34.2401 38.5801 32.909 38.6406C31.4697 38.7068 31.0374 38.72 27.3912 38.72C23.7451 38.72 23.314 38.7068 21.8752 38.6406ZM21.7622 13.9489C20.3086 14.0151 19.3155 14.2457 18.4481 14.5833C17.5497 14.9319 16.7893 15.3996 16.0294 16.1585C15.2695 16.9175 14.803 17.6794 14.4545 18.578C14.117 19.4462 13.8865 20.4391 13.8203 21.893C13.753 23.3492 13.7377 23.8147 13.7377 27.5237C13.7377 31.2327 13.753 31.6982 13.8203 33.1544C13.8865 34.6085 14.117 35.6013 14.4545 36.4695C14.803 37.3676 15.2696 38.1302 16.0294 38.8888C16.7892 39.6475 17.5497 40.1145 18.4481 40.4641C19.317 40.8018 20.3086 41.0322 21.7622 41.0985C23.2187 41.1647 23.6833 41.1812 27.3912 41.1812C31.0992 41.1812 31.5646 41.1659 33.0203 41.0985C34.474 41.0322 35.4665 40.8018 36.3344 40.4641C37.2322 40.1145 37.9931 39.6478 38.7531 38.8888C39.513 38.1299 39.9784 37.3676 40.328 36.4695C40.6655 35.6013 40.897 34.6083 40.9622 33.1544C41.0283 31.6971 41.0437 31.2327 41.0437 27.5237C41.0437 23.8147 41.0283 23.3492 40.9622 21.893C40.896 20.439 40.6655 19.4456 40.328 18.578C39.9784 17.6799 39.5118 16.9187 38.7531 16.1585C37.9944 15.3985 37.2322 14.9319 36.3356 14.5833C35.4665 14.2457 34.4739 14.014 33.0215 13.9489C31.5656 13.8827 31.1002 13.8662 27.3924 13.8662C23.6845 13.8662 23.2187 13.8816 21.7622 13.9489Z" fill="white"/>
<path d="M22.8407 27.5237C22.8407 25.0095 24.8778 22.9709 27.3912 22.9709C29.9047 22.9709 31.9428 25.0095 31.9428 27.5237C31.9428 30.0379 29.9047 32.0766 27.3912 32.0766C24.8778 32.0766 22.8407 30.0379 22.8407 27.5237ZM20.3802 27.5237C20.3802 31.397 23.5191 34.5367 27.3912 34.5367C31.2634 34.5367 34.4023 31.397 34.4023 27.5237C34.4023 23.6504 31.2634 20.5107 27.3912 20.5107C23.5191 20.5107 20.3802 23.6504 20.3802 27.5237ZM33.0413 20.2327C33.0412 20.5568 33.1372 20.8737 33.3171 21.1433C33.497 21.4129 33.7528 21.623 34.0521 21.7472C34.3514 21.8714 34.6808 21.904 34.9988 21.8409C35.3166 21.7778 35.6086 21.6218 35.8379 21.3927C36.0671 21.1635 36.2232 20.8716 36.2866 20.5537C36.3499 20.2358 36.3176 19.9062 36.1937 19.6067C36.0698 19.3072 35.8599 19.0512 35.5905 18.871C35.3212 18.6908 35.0045 18.5946 34.6804 18.5945C34.2461 18.5947 33.8289 18.7673 33.5217 19.0744C33.2144 19.3816 33.0417 19.7982 33.0413 20.2327ZM21.8752 38.6406C20.544 38.5799 19.8206 38.3582 19.3397 38.1708C18.7022 37.9226 18.2474 37.6269 17.7692 37.1492C17.2909 36.6715 16.9949 36.217 16.748 35.5793C16.5604 35.0986 16.3387 34.3747 16.2782 33.0431C16.212 31.6035 16.1988 31.1711 16.1988 27.5238C16.1988 23.8766 16.2132 23.4454 16.2782 22.0045C16.3388 20.673 16.5623 19.9505 16.748 19.4683C16.9961 18.8306 17.2916 18.3757 17.7692 17.8973C18.2468 17.419 18.7012 17.1229 19.3397 16.8758C19.8203 16.6883 20.544 16.4665 21.8752 16.406C23.3143 16.3398 23.7467 16.3265 27.3912 16.3265C31.0358 16.3265 31.4685 16.3408 32.909 16.406C34.2401 16.4666 34.9624 16.69 35.4444 16.8758C36.0819 17.1229 36.5367 17.4197 37.015 17.8973C37.4932 18.375 37.788 18.8306 38.0362 19.4683C38.2236 19.949 38.4454 20.673 38.5059 22.0045C38.5722 23.4454 38.5854 23.8766 38.5854 27.5238C38.5854 31.1711 38.5722 31.6023 38.5059 33.0431C38.4453 34.3747 38.2225 35.0984 38.0362 35.5793C37.788 36.217 37.4925 36.672 37.015 37.1492C36.5374 37.6265 36.0819 37.9226 35.4444 38.1708C34.9639 38.3583 34.2401 38.5801 32.909 38.6406C31.4697 38.7068 31.0374 38.72 27.3912 38.72C23.7451 38.72 23.314 38.7068 21.8752 38.6406ZM21.7622 13.9489C20.3086 14.0151 19.3155 14.2457 18.4481 14.5833C17.5497 14.9319 16.7893 15.3996 16.0294 16.1585C15.2695 16.9175 14.803 17.6794 14.4545 18.578C14.117 19.4462 13.8865 20.4391 13.8203 21.893C13.753 23.3492 13.7377 23.8147 13.7377 27.5237C13.7377 31.2327 13.753 31.6982 13.8203 33.1544C13.8865 34.6085 14.117 35.6013 14.4545 36.4695C14.803 37.3676 15.2696 38.1302 16.0294 38.8888C16.7892 39.6475 17.5497 40.1145 18.4481 40.4641C19.317 40.8018 20.3086 41.0322 21.7622 41.0985C23.2187 41.1647 23.6833 41.1812 27.3912 41.1812C31.0992 41.1812 31.5646 41.1659 33.0203 41.0985C34.474 41.0322 35.4665 40.8018 36.3344 40.4641C37.2322 40.1145 37.9931 39.6478 38.7531 38.8888C39.513 38.1299 39.9784 37.3676 40.328 36.4695C40.6655 35.6013 40.897 34.6083 40.9622 33.1544C41.0283 31.6971 41.0437 31.2327 41.0437 27.5237C41.0437 23.8147 41.0283 23.3492 40.9622 21.893C40.896 20.439 40.6655 19.4456 40.328 18.578C39.9784 17.6799 39.5118 16.9187 38.7531 16.1585C37.9944 15.3985 37.2322 14.9319 36.3356 14.5833C35.4665 14.2457 34.4739 14.014 33.0215 13.9489C31.5656 13.8827 31.1002 13.8662 27.3924 13.8662C23.6845 13.8662 23.2187 13.8816 21.7622 13.9489Z" fill="white"/>
</svg>
