<svg width="56" height="55" viewBox="0 0 56 55" fill="none" xmlns="http://www.w3.org/2000/svg">
<path d="M21.7832 38.5141V23.77H16.8869V38.5141H21.7832ZM19.336 21.7573C21.0431 21.7573 22.1059 20.6251 22.1059 19.2103C22.0739 17.7631 21.0431 16.6626 19.3685 16.6626C17.6927 16.6626 16.5981 17.7631 16.5981 19.2101C16.5981 20.625 17.6606 21.7572 19.3039 21.7572L19.336 21.7573ZM24.4934 38.5141H29.3893V30.2813C29.3893 29.8411 29.4213 29.3999 29.5506 29.0856C29.9044 28.2048 30.71 27.293 32.0629 27.293C33.8342 27.293 34.5432 28.645 34.5432 30.6273V38.5141H39.439V30.0603C39.439 25.5318 37.0238 23.4243 33.8025 23.4243C31.1614 23.4243 30.0016 24.9018 29.357 25.9081H29.3897V23.7705H24.4936C24.5575 25.1537 24.4934 38.5141 24.4934 38.5141Z" fill="white"/>
</svg>
