<svg width="55" height="55" viewBox="0 0 55 55" fill="none" xmlns="http://www.w3.org/2000/svg">
<path d="M41.2511 18.8131C40.35 19.2013 39.4025 19.4716 38.4322 19.6174C38.8858 19.5395 39.5533 18.7223 39.8191 18.3915C40.2226 17.8925 40.5303 17.3229 40.7262 16.7116C40.7262 16.6662 40.7716 16.6013 40.7262 16.5689C40.7034 16.5564 40.6778 16.5499 40.6518 16.5499C40.6257 16.5499 40.6 16.5564 40.5772 16.5689C39.5236 17.14 38.4023 17.5758 37.2398 17.8661C37.1994 17.8785 37.1562 17.8797 37.1151 17.8693C37.0739 17.8591 37.0364 17.8378 37.0065 17.8078C36.9161 17.6999 36.8187 17.5981 36.715 17.5029C36.2408 17.0776 35.7028 16.7297 35.1207 16.4716C34.3351 16.149 33.4863 16.0092 32.6387 16.063C31.8164 16.115 31.0135 16.3358 30.2799 16.7116C29.5576 17.1079 28.9228 17.6462 28.4136 18.2942C27.878 18.9612 27.4912 19.7353 27.2795 20.5644C27.105 21.353 27.0851 22.1681 27.2212 22.9642C27.2212 23.1004 27.2212 23.1198 27.1045 23.1004C22.4841 22.4194 18.693 20.7784 15.5954 17.2564C15.4593 17.1007 15.3881 17.1007 15.2779 17.2564C13.93 19.3061 14.5845 22.5491 16.2694 24.1512C16.4962 24.3652 16.7295 24.5727 16.9758 24.7674C16.2032 24.7125 15.4496 24.5029 14.7595 24.1512C14.6299 24.0668 14.5586 24.1123 14.5521 24.268C14.5337 24.4837 14.5337 24.7008 14.5521 24.9166C14.6873 25.9508 15.0945 26.9305 15.7322 27.7556C16.3698 28.5807 17.2149 29.2215 18.1811 29.6125C18.4166 29.7135 18.6621 29.7896 18.9134 29.8395C18.1983 29.9804 17.4647 30.0023 16.7424 29.9043C16.587 29.8719 16.5286 29.9563 16.587 30.1055C17.5395 32.6999 19.6068 33.4911 21.1232 33.9322C21.3306 33.9646 21.538 33.9646 21.7712 34.0166C21.7712 34.0166 21.7712 34.0166 21.7323 34.0555C21.2852 34.8727 19.4772 35.424 18.6477 35.7094C17.1337 36.2537 15.5195 36.4618 13.917 36.3191C13.6643 36.2802 13.606 36.2867 13.5412 36.3191C13.4764 36.3515 13.5412 36.4229 13.6124 36.4878C13.9365 36.7018 14.2604 36.89 14.5975 37.0716C15.6006 37.6192 16.6612 38.0542 17.7599 38.3688C23.4496 39.9383 29.8522 38.7838 34.1228 34.5354C37.4797 31.2015 38.6591 26.6029 38.6591 21.9977C38.6591 21.8226 38.8729 21.7189 38.996 21.628C39.8453 20.9658 40.594 20.1836 41.2187 19.3061C41.327 19.1752 41.3825 19.0087 41.3743 18.839C41.3743 18.7417 41.3743 18.7611 41.2511 18.8131Z" fill="white"/>
</svg>
