<svg width="56" height="55" viewBox="0 0 56 55" fill="none" xmlns="http://www.w3.org/2000/svg">
<path d="M42.9211 19.9466C42.5647 18.6068 41.5105 17.5499 40.1693 17.1877C37.744 16.5376 28.0136 16.5376 28.0136 16.5376C28.0136 16.5376 18.2882 16.5376 15.8581 17.1877C14.5219 17.545 13.4676 18.6018 13.1063 19.9466C12.4579 22.3778 12.4579 27.4539 12.4579 27.4539C12.4579 27.4539 12.4579 32.53 13.1063 34.9614C13.4626 36.3011 14.5169 37.3581 15.8581 37.7202C18.2882 38.3702 28.0136 38.3702 28.0136 38.3702C28.0136 38.3702 37.744 38.3702 40.1693 37.7202C41.5055 37.363 42.5597 36.3061 42.9211 34.9614C43.5694 32.53 43.5694 27.4539 43.5694 27.4539C43.5694 27.4539 43.5694 22.3778 42.9211 19.9466Z" fill="white"/>
<path d="M24.9055 32.1333L32.9877 27.454L24.9055 22.7749V32.1333Z" fill="#1A2434"/>
</svg>
