<?xml version="1.0" encoding="UTF-8"?>
<!DOCTYPE svg PUBLIC "-//W3C//DTD SVG 1.1//EN" "http://www.w3.org/Graphics/SVG/1.1/DTD/svg11.dtd">
<svg xmlns="http://www.w3.org/2000/svg" version="1.1" width="106px" height="95px" style="shape-rendering:geometricPrecision; text-rendering:geometricPrecision; image-rendering:optimizeQuality; fill-rule:evenodd; clip-rule:evenodd" xmlns:xlink="http://www.w3.org/1999/xlink">
<g><path style="opacity:1" fill="#fcfcfd" d="M -0.5,-0.5 C 34.8333,-0.5 70.1667,-0.5 105.5,-0.5C 105.5,31.1667 105.5,62.8333 105.5,94.5C 70.1667,94.5 34.8333,94.5 -0.5,94.5C -0.5,62.8333 -0.5,31.1667 -0.5,-0.5 Z"/></g>
<g><path style="opacity:1" fill="#441dab" d="M 53.5,7.5 C 55.3407,8.40226 56.674,9.73559 57.5,11.5C 57.427,13.0269 58.0937,14.0269 59.5,14.5C 60.3382,14.8417 60.6716,15.5084 60.5,16.5C 60.4142,17.4959 60.7476,18.3292 61.5,19C 60.8742,19.7504 60.3742,20.5838 60,21.5C 58.5558,17.5891 56.3891,14.2558 53.5,11.5C 53.5,10.5 53.5,9.5 53.5,8.5C 53.5,8.16667 53.5,7.83333 53.5,7.5 Z"/></g>
<g><path style="opacity:1" fill="#8a8bda" d="M 57.5,11.5 C 58.9063,11.9731 59.573,12.9731 59.5,14.5C 58.0937,14.0269 57.427,13.0269 57.5,11.5 Z"/></g>
<g><path style="opacity:1" fill="#4d428b" d="M 53.5,7.5 C 53.5,7.83333 53.5,8.16667 53.5,8.5C 51.9826,8.51056 50.8159,9.17723 50,10.5C 48.5555,13.0546 47.3888,15.7213 46.5,18.5C 47.5722,21.2037 48.5722,23.8704 49.5,26.5C 47.067,24.3824 45.4003,21.7157 44.5,18.5C 46.5619,14.0442 48.8952,9.71091 51.5,5.5C 52.5223,5.85549 53.189,6.52216 53.5,7.5 Z"/></g>
<g><path style="opacity:1" fill="#786af7" d="M 53.5,11.5 C 56.3891,14.2558 58.5558,17.5891 60,21.5C 60.3742,20.5838 60.8742,19.7504 61.5,19C 60.7476,18.3292 60.4142,17.4959 60.5,16.5C 62.588,18.3356 63.9213,20.6689 64.5,23.5C 63.4246,22.4376 62.4246,22.4376 61.5,23.5C 62.4672,25.6297 63.6338,27.6297 65,29.5C 66.5106,28.436 66.6772,27.1026 65.5,25.5C 67.3264,27.1475 68.6597,29.1475 69.5,31.5C 68.5416,31.0472 67.7083,30.3805 67,29.5C 66.8333,30 66.6667,30.5 66.5,31C 67.7246,33.9463 69.0579,36.7796 70.5,39.5C 70.6168,41.4835 69.9501,43.1502 68.5,44.5C 68.8333,44.8333 69.1667,45.1667 69.5,45.5C 71.7136,43.0762 72.7136,43.7429 72.5,47.5C 71.448,47.3505 70.448,47.5172 69.5,48C 69.8333,48.3333 70.1667,48.6667 70.5,49C 69.6195,49.7083 68.9528,50.5416 68.5,51.5C 61.8631,41.3399 55.3631,31.0066 49,20.5C 48.3333,19.5 48.3333,18.5 49,17.5C 50.2775,15.2528 51.7775,13.2528 53.5,11.5 Z"/></g>
<g><path style="opacity:1" fill="#3d0fa9" d="M 64.5,23.5 C 65.3382,23.8417 65.6716,24.5084 65.5,25.5C 66.6772,27.1026 66.5106,28.436 65,29.5C 63.6338,27.6297 62.4672,25.6297 61.5,23.5C 62.4246,22.4376 63.4246,22.4376 64.5,23.5 Z"/></g>
<g><path style="opacity:1" fill="#4f0cdd" d="M 41.5,30.5 C 44.8015,31.1347 46.8015,33.1347 47.5,36.5C 39.211,50.0898 31.211,63.7564 23.5,77.5C 21.6551,83.3168 17.6551,85.6502 11.5,84.5C 11.5,83.5 11.5,82.5 11.5,81.5C 20.747,63.9984 30.747,46.9984 41.5,30.5 Z"/></g>
<g><path style="opacity:1" fill="#d1d4ee" d="M 53.5,8.5 C 53.5,9.5 53.5,10.5 53.5,11.5C 51.7775,13.2528 50.2775,15.2528 49,17.5C 48.3333,18.5 48.3333,19.5 49,20.5C 55.3631,31.0066 61.8631,41.3399 68.5,51.5C 71.3502,56.0378 74.0169,60.7045 76.5,65.5C 75.8106,66.7736 74.9772,66.7736 74,65.5C 66.3088,52.0987 58.1421,39.0987 49.5,26.5C 48.5722,23.8704 47.5722,21.2037 46.5,18.5C 47.3888,15.7213 48.5555,13.0546 50,10.5C 50.8159,9.17723 51.9826,8.51056 53.5,8.5 Z"/></g>
<g><path style="opacity:1" fill="#5636bb" d="M 69.5,31.5 C 73.6654,37.1583 77.3321,43.1583 80.5,49.5C 79.2954,47.8624 77.9621,47.5291 76.5,48.5C 74.4963,45.4581 72.4963,42.4581 70.5,39.5C 69.0579,36.7796 67.7246,33.9463 66.5,31C 66.6667,30.5 66.8333,30 67,29.5C 67.7083,30.3805 68.5416,31.0472 69.5,31.5 Z"/></g>
<g><path style="opacity:1" fill="#7059f9" d="M 70.5,39.5 C 72.4963,42.4581 74.4963,45.4581 76.5,48.5C 79.8059,54.1494 83.1392,59.8161 86.5,65.5C 83.5719,66.4841 80.5719,66.8174 77.5,66.5C 77.5,65.8333 77.1667,65.5 76.5,65.5C 74.0169,60.7045 71.3502,56.0378 68.5,51.5C 68.9528,50.5416 69.6195,49.7083 70.5,49C 70.1667,48.6667 69.8333,48.3333 69.5,48C 70.448,47.5172 71.448,47.3505 72.5,47.5C 72.7136,43.7429 71.7136,43.0762 69.5,45.5C 69.1667,45.1667 68.8333,44.8333 68.5,44.5C 69.9501,43.1502 70.6168,41.4835 70.5,39.5 Z"/></g>
<g><path style="opacity:1" fill="#473c81" d="M 44.5,28.5 C 43.8333,28.5 43.1667,28.5 42.5,28.5C 42.6309,27.6236 42.2975,26.9569 41.5,26.5C 29.9149,45.3346 18.5816,64.3346 7.5,83.5C 7.62358,84.1067 7.95691,84.44 8.5,84.5C 8.16667,85.1667 7.83333,85.8333 7.5,86.5C 4.00171,86.4347 3.50171,85.1014 6,82.5C 17.3304,62.5015 29.1637,42.8349 41.5,23.5C 42.9524,24.9397 43.9524,26.6064 44.5,28.5 Z"/></g>
<g><path style="opacity:1" fill="#3b10a6" d="M 42.5,28.5 C 43.1667,28.5 43.8333,28.5 44.5,28.5C 47.71,31.5194 49.21,35.186 49,39.5C 42.9702,48.8963 37.4702,58.5629 32.5,68.5C 30.7497,69.6594 29.7497,71.326 29.5,73.5C 28.4884,74.8717 27.4884,76.205 26.5,77.5C 25.5,77.5 24.5,77.5 23.5,77.5C 31.211,63.7564 39.211,50.0898 47.5,36.5C 46.8015,33.1347 44.8015,31.1347 41.5,30.5C 41.3284,29.5084 41.6618,28.8417 42.5,28.5 Z"/></g>
<g><path style="opacity:1" fill="#9189e6" d="M 80.5,49.5 C 81.9063,49.9731 82.573,50.9731 82.5,52.5C 81.0937,52.0269 80.427,51.0269 80.5,49.5 Z"/></g>
<g><path style="opacity:1" fill="#cdd1eb" d="M 42.5,28.5 C 41.6618,28.8417 41.3284,29.5084 41.5,30.5C 30.747,46.9984 20.747,63.9984 11.5,81.5C 10.7281,82.6935 9.72813,83.6935 8.5,84.5C 7.95691,84.44 7.62358,84.1067 7.5,83.5C 18.5816,64.3346 29.9149,45.3346 41.5,26.5C 42.2975,26.9569 42.6309,27.6236 42.5,28.5 Z"/></g>
<g><path style="opacity:1" fill="#463982" d="M 49.5,26.5 C 58.1421,39.0987 66.3088,52.0987 74,65.5C 74.9772,66.7736 75.8106,66.7736 76.5,65.5C 77.1667,65.5 77.5,65.8333 77.5,66.5C 77.5,67.1667 77.5,67.8333 77.5,68.5C 76.0222,68.762 74.6888,68.4287 73.5,67.5C 65.2246,53.9425 57.2246,40.2758 49.5,26.5 Z"/></g>
<g><path style="opacity:1" fill="#7e71dc" d="M 82.5,52.5 C 84.1991,54.5664 85.5324,56.8997 86.5,59.5C 84.058,57.8791 82.7247,55.5458 82.5,52.5 Z"/></g>
<g><path style="opacity:1" fill="#340999" d="M 80.5,49.5 C 80.427,51.0269 81.0937,52.0269 82.5,52.5C 82.7247,55.5458 84.058,57.8791 86.5,59.5C 87.4013,60.2905 88.0679,61.2905 88.5,62.5C 88.3832,64.4835 89.0499,66.1502 90.5,67.5C 86.5546,68.4909 82.5546,68.8242 78.5,68.5C 78.1667,68.5 77.8333,68.5 77.5,68.5C 77.5,67.8333 77.5,67.1667 77.5,66.5C 80.5719,66.8174 83.5719,66.4841 86.5,65.5C 83.1392,59.8161 79.8059,54.1494 76.5,48.5C 77.9621,47.5291 79.2954,47.8624 80.5,49.5 Z"/></g>
<g><path style="opacity:1" fill="#7b78ca" d="M 88.5,62.5 C 90.1662,64.1868 91.4995,66.1868 92.5,68.5C 87.6819,69.8124 83.0152,69.8124 78.5,68.5C 82.5546,68.8242 86.5546,68.4909 90.5,67.5C 89.0499,66.1502 88.3832,64.4835 88.5,62.5 Z"/></g>
<g><path style="opacity:1" fill="#acacc9" d="M 32.5,68.5 C 32.5,69.5 32.5,70.5 32.5,71.5C 52.6736,71.1695 72.6736,71.5029 92.5,72.5C 72.0909,72.1791 51.7576,72.5124 31.5,73.5C 31.0623,72.4937 30.3957,72.4937 29.5,73.5C 29.7497,71.326 30.7497,69.6594 32.5,68.5 Z"/></g>
<g><path style="opacity:1" fill="#352674" d="M 92.5,72.5 C 95.3497,76.1994 97.683,80.1994 99.5,84.5C 99.6716,85.4916 99.3382,86.1583 98.5,86.5C 98.0679,85.2905 97.4013,84.2905 96.5,83.5C 95.3197,80.4604 93.653,77.7937 91.5,75.5C 82.3576,74.1682 72.8576,73.5015 63,73.5C 53.5,73.6667 44,73.8333 34.5,74C 32.6009,76.9877 30.6009,79.8211 28.5,82.5C 28.1667,82.5 27.8333,82.5 27.5,82.5C 29.1054,79.6223 30.4388,76.6223 31.5,73.5C 51.7576,72.5124 72.0909,72.1791 92.5,72.5 Z"/></g>
<g><path style="opacity:1" fill="#c7cbe9" d="M 91.5,75.5 C 72.4883,75.1671 53.4883,75.5004 34.5,76.5C 33.1534,79.1932 31.8201,81.8599 30.5,84.5C 29.1667,84.5 28.5,83.8333 28.5,82.5C 30.6009,79.8211 32.6009,76.9877 34.5,74C 44,73.8333 53.5,73.6667 63,73.5C 72.8576,73.5015 82.3576,74.1682 91.5,75.5 Z"/></g>
<g><path style="opacity:1" fill="#9694fc" d="M 91.5,75.5 C 87.6475,76.1663 83.6475,76.833 79.5,77.5C 77.2492,79.026 74.7492,80.026 72,80.5C 71.5,80.8333 71,81.1667 70.5,81.5C 71.376,82.2508 72.376,82.7508 73.5,83C 69.3123,83.1762 65.3123,83.6762 61.5,84.5C 51.1667,84.5 40.8333,84.5 30.5,84.5C 31.8201,81.8599 33.1534,79.1932 34.5,76.5C 53.4883,75.5004 72.4883,75.1671 91.5,75.5 Z"/></g>
<g><path style="opacity:1" fill="#8680f9" d="M 91.5,75.5 C 93.653,77.7937 95.3197,80.4604 96.5,83.5C 85.012,84.4949 73.3453,84.8283 61.5,84.5C 65.3123,83.6762 69.3123,83.1762 73.5,83C 72.376,82.7508 71.376,82.2508 70.5,81.5C 71,81.1667 71.5,80.8333 72,80.5C 74.7492,80.026 77.2492,79.026 79.5,77.5C 83.6475,76.833 87.6475,76.1663 91.5,75.5 Z"/></g>
<g><path style="opacity:1" fill="#391b94" d="M 23.5,77.5 C 24.5,77.5 25.5,77.5 26.5,77.5C 24.5919,80.3116 22.9252,83.3116 21.5,86.5C 16.6819,87.8124 12.0152,87.8124 7.5,86.5C 7.83333,85.8333 8.16667,85.1667 8.5,84.5C 9.72813,83.6935 10.7281,82.6935 11.5,81.5C 11.5,82.5 11.5,83.5 11.5,84.5C 17.6551,85.6502 21.6551,83.3168 23.5,77.5 Z"/></g>
<g><path style="opacity:1" fill="#310c86" d="M 27.5,82.5 C 27.8333,82.5 28.1667,82.5 28.5,82.5C 28.5,83.8333 29.1667,84.5 30.5,84.5C 40.8333,84.5 51.1667,84.5 61.5,84.5C 73.3453,84.8283 85.012,84.4949 96.5,83.5C 97.4013,84.2905 98.0679,85.2905 98.5,86.5C 74.5,86.5 50.5,86.5 26.5,86.5C 26.4326,85.0413 26.7659,83.7079 27.5,82.5 Z"/></g>
<g><path style="opacity:1" fill="#9f9ed1" d="M 99.5,84.5 C 100.404,85.209 100.737,86.209 100.5,87.5C 75.661,87.831 50.9944,87.4977 26.5,86.5C 50.5,86.5 74.5,86.5 98.5,86.5C 99.3382,86.1583 99.6716,85.4916 99.5,84.5 Z"/></g>
</svg>
