<svg width="187" height="36" viewBox="0 0 187 36" fill="none" xmlns="http://www.w3.org/2000/svg">
<path d="M59.5867 9.0923C62.2597 9.0923 64.3979 9.98265 66.1799 11.8227L66.2987 11.9414L68.6747 9.6265L68.6152 9.5078C66.4769 7.13355 63.2099 5.8277 59.4679 5.8277C52.1027 5.8277 46.6974 10.9324 46.6974 17.9958C46.6974 25.0592 52.0432 30.1637 59.4084 30.1637C63.1507 30.1637 66.4174 28.858 68.6152 26.4242L68.6747 26.3055L66.2987 23.9907L66.1799 24.1094C64.3979 25.9495 62.2002 26.8993 59.5867 26.8993C54.2409 26.8993 50.3802 23.1597 50.3802 17.9958C50.3802 12.8318 54.3004 9.0923 59.5867 9.0923ZM78.8317 27.0772C75.3272 27.0772 72.8919 24.5249 72.8919 20.9636C72.8919 17.3428 75.3272 14.8498 78.8317 14.8498C82.3362 14.8498 84.7714 17.3428 84.7714 20.9636C84.7714 24.5843 82.3362 27.0772 78.8317 27.0772ZM78.8317 11.7633C73.3077 11.7633 69.3279 15.6215 69.3279 20.9636C69.3279 26.3055 73.3077 30.1637 78.8317 30.1637C84.3557 30.1637 88.3352 26.3055 88.3352 20.9636C88.3352 15.6215 84.2962 11.7633 78.8317 11.7633ZM99.0269 27.0772C95.5224 27.0772 93.0277 24.5249 93.0277 20.9042C93.0277 17.2835 95.4629 14.7311 99.0269 14.7311C102.531 14.7311 104.967 17.2835 104.967 20.9042C104.967 24.5249 102.531 27.0772 99.0269 27.0772ZM104.967 14.2563C103.482 12.535 101.343 11.6446 98.7894 11.6446C93.3247 11.6446 89.5232 15.4434 89.5232 20.9042C89.5232 26.365 93.3247 30.1637 98.7894 30.1637C101.403 30.1637 103.66 29.1548 105.085 27.374V29.9263H108.471V4.64057H104.907L104.967 14.2563ZM119.875 14.7311C122.786 14.7311 124.984 16.6899 125.399 19.539H114.411C114.767 16.6899 116.906 14.7311 119.875 14.7311ZM119.875 11.7633C114.648 11.7633 110.906 15.6215 110.906 20.9636C110.906 26.365 114.827 30.1637 120.529 30.1637C123.499 30.1637 125.934 29.1548 127.597 27.2553L127.657 27.196L125.696 24.9404L125.578 25.0592C124.33 26.4242 122.667 27.1365 120.588 27.1365C117.262 27.1365 114.827 25.2373 114.351 22.21H128.607V22.0913C128.666 21.7945 128.666 21.3791 128.666 21.0823C128.726 15.5621 125.043 11.7633 119.875 11.7633ZM144.941 24.5843C143.872 26.187 142.209 27.0772 140.13 27.0772C136.507 27.0772 134.072 24.5843 134.072 20.9636C134.072 17.3428 136.566 14.8498 140.13 14.8498C142.209 14.8498 143.872 15.6809 144.941 17.3428L145.001 17.4615L147.733 15.7402L147.674 15.6215C146.248 13.1879 143.516 11.7633 140.19 11.7633C134.606 11.7633 130.508 15.6215 130.508 20.9636C130.508 26.3055 134.606 30.1637 140.19 30.1637C143.516 30.1637 146.248 28.7393 147.674 26.2463L147.733 26.1275L145.001 24.4656L144.941 24.5843ZM158.425 27.0772C154.92 27.0772 152.485 24.5249 152.485 20.9636C152.485 17.3428 154.92 14.8498 158.425 14.8498C161.929 14.8498 164.364 17.3428 164.364 20.9636C164.364 24.5843 161.929 27.0772 158.425 27.0772ZM158.425 11.7633C152.901 11.7633 148.921 15.6215 148.921 20.9636C148.921 26.3055 152.901 30.1637 158.425 30.1637C163.949 30.1637 167.928 26.3055 167.928 20.9636C167.928 15.6215 163.889 11.7633 158.425 11.7633ZM182.897 11.7633L176.838 25.6528L170.898 11.7633H167.275L175.056 29.5107L175.115 29.5702H178.561L186.342 11.7633H182.897ZM19.0328 0C8.61988 0 0.138428 8.3916 0.138428 18.6294V18.7133L3.32948 20.5595H3.41345C5.42885 19.2168 7.86413 18.7133 10.2994 19.1329C11.9789 19.4685 13.5744 20.2238 14.834 21.3986L15.4219 21.9021L15.7578 21.2308C16.0937 20.5595 16.4296 19.972 16.7655 19.3846C16.9334 19.1329 17.1014 18.965 17.2693 18.7133L17.6052 18.2937L17.1853 17.958C15.4219 16.5315 13.3225 15.5245 11.0552 15.1049C8.8718 14.6853 6.68848 14.7692 4.67308 15.4405C6.18463 8.8112 12.0629 4.1119 19.0328 4.1119C22.9796 4.1119 26.6744 5.62237 29.4457 8.3916C31.4612 10.3217 32.8047 12.7552 33.3924 15.4405C32.1329 15.021 30.7892 14.8532 29.4457 14.8532H29.1937C28.6899 14.8532 28.1859 14.937 27.5982 14.937H27.5142C27.3462 14.937 27.0944 15.021 26.9264 15.021C26.5904 15.1049 26.3387 15.1049 26.0027 15.1888L25.7507 15.2727C25.4989 15.3567 25.2469 15.4405 24.995 15.5245H24.911C24.3232 15.6923 23.8194 15.9441 23.2315 16.1958C22.9796 16.2797 22.7277 16.4475 22.4758 16.6154H22.3918C21.1322 17.3706 19.9565 18.2937 19.0328 19.4685L18.9488 19.6364C18.6969 19.972 18.5289 20.2238 18.361 20.3916C18.193 20.5595 18.1091 20.8112 17.9411 21.0629L17.8571 21.2308C17.6892 21.4825 17.6052 21.7343 17.5212 21.9021V21.986C17.2693 22.4895 17.0174 23.0769 16.8494 23.6643V23.7482C16.4296 25.091 16.1776 26.5175 16.1776 28.028V28.1957C16.1776 28.3637 16.1776 28.6155 16.1776 28.7833C16.1776 28.8673 16.1776 28.951 16.1776 29.035C16.1776 29.119 16.1776 29.2868 16.1776 29.3708V29.4545V29.6225C16.1776 29.7902 16.2616 30.042 16.2616 30.2097C16.6815 32.2237 17.6052 34.1538 19.0328 35.916L19.1168 36L19.2007 35.916C19.7886 35.2448 21.1322 33.1468 21.3001 31.888C20.6283 30.6292 20.2924 29.2028 20.2924 27.8603C20.2924 23.1609 23.9873 19.2168 28.7739 18.965H29.1097C31.0412 18.8811 32.9727 19.4685 34.5682 20.5595H34.6522L37.8432 18.7133V18.6294C37.8432 13.6783 35.9117 8.97902 32.3009 5.45455C28.7739 1.93007 24.0713 0 19.0328 0Z" fill="black" fill-opacity="0.4"/>
</svg>
