<svg width="31" height="32" viewBox="0 0 31 32" fill="none" xmlns="http://www.w3.org/2000/svg">
<path d="M21.6854 0.129542C15.8058 -0.764628 10.2818 3.05953 9.09613 8.84188C8.88519 9.87521 8.56775 10.7117 8.12823 11.3988C8.08917 11.4608 8.05401 11.5258 8.02374 11.5927L5.89367 16.3329C5.69146 16.7837 5.72369 17.3042 5.97961 17.7262C6.23645 18.149 6.68377 18.4176 7.177 18.446L9.604 18.5837V21.2597C9.604 22.587 10.6832 23.6662 12.0095 23.6662H13.3818V26.8658C13.3818 27.694 14.0537 28.3659 14.8819 28.3659H24.9299C25.758 28.3659 26.43 27.694 26.43 26.8658C26.43 24.2542 27.2543 20.2928 29.0943 17.3277C29.0953 17.3267 29.0953 17.3257 29.0963 17.3247C30.7801 14.8694 31.3905 11.8764 30.8133 8.88876C30.8133 8.88827 30.8133 8.88827 30.8133 8.88827C29.9362 4.34871 26.2679 0.828822 21.6854 0.129542ZM26.597 15.6639C26.5726 15.6991 26.5502 15.7357 26.5287 15.7728C24.8947 18.4167 23.7637 22.0391 23.4922 25.3656H16.3821V23.0714C16.3821 21.7451 15.3029 20.6659 13.9756 20.6659H12.6043V18.0221C12.6043 16.7475 11.6072 15.6927 10.3345 15.62L9.52391 15.5741L10.7174 12.918C11.3268 11.937 11.7585 10.7991 12.0359 9.44398C12.9002 5.22871 16.9475 2.43934 21.2322 3.09565C24.5118 3.59571 27.2397 6.21223 27.8677 9.45716C28.2935 11.6649 27.8423 13.8693 26.597 15.6639ZM5 22.9015C5 25.602 7.19751 27.7995 9.89801 27.7995C10.7262 27.7995 11.3981 27.1275 11.3981 26.2993C11.3981 25.4711 10.7262 24.7992 9.89801 24.7992C8.85199 24.7992 8.0003 23.9475 8.0003 22.9015C8.0003 22.0733 7.32836 21.4013 6.50018 21.4013C5.67193 21.4013 5 22.0733 5 22.9015Z" fill="#F1BF5A"/>
<path d="M1.88714 23.2305C1.05895 23.2305 0.386963 23.9025 0.386963 24.7307C0.386963 28.4635 3.42346 31.5 7.15527 31.5C7.98352 31.5 8.65545 30.8281 8.65545 29.9998C8.65545 29.1716 7.98351 28.4997 7.15527 28.4997C5.07794 28.4997 3.38733 26.8091 3.38733 24.7307C3.38732 23.9025 2.71538 23.2305 1.88714 23.2305Z" fill="#F1BF5A"/>
</svg>
