<svg width="236" height="36" viewBox="0 0 236 36" fill="none" xmlns="http://www.w3.org/2000/svg">
<path d="M100.4 23.0369C98.0177 23.0369 95.4799 21.3969 95.4799 17.7657C95.4799 14.1345 98.0177 12.4946 100.4 12.4946C102.781 12.4946 105.319 14.1345 105.319 17.7657C105.319 21.3969 102.781 23.0369 100.4 23.0369ZM109.185 17.8048C109.185 12.1041 104.929 8.7462 100.165 8.7462C95.4017 8.7462 91.5362 12.4946 91.5362 17.8048C91.5362 22.8807 95.0894 26.59 99.6187 26.8633C100.321 26.9025 103.406 26.8633 105.827 24.2863H105.905L108.716 26.8633H109.263V17.961C109.224 17.961 109.185 17.8048 109.185 17.8048ZM135.384 0.039048C136.79 0.039048 137.922 1.17137 137.922 2.577C137.922 3.98265 136.79 5.11497 135.384 5.11497C134.057 5.11497 132.924 3.98265 132.924 2.577C132.924 1.17137 134.018 0.039048 135.384 0.039048ZM133.588 26.8633H137.259V8.78525H133.588V26.8633ZM153.658 20.6161C152.76 22.295 151.042 23.0759 149.402 23.0759C147.02 23.0759 144.482 21.436 144.482 17.8048C144.482 14.1735 147.02 12.5336 149.402 12.5336C151.042 12.5336 152.76 13.3145 153.658 14.9544L157.055 12.9631C155.493 10.2299 152.642 8.66813 149.402 8.66813C144.638 8.66813 140.538 12.2213 140.538 17.7267C140.538 23.2711 144.599 26.8242 149.402 26.8242C152.642 26.8242 155.493 25.2625 157.055 22.5293L153.658 20.6161ZM80.7597 8.3948C79.3539 8.3948 77.9874 8.78525 76.8942 9.44903C76.4257 9.7614 75.4884 10.4642 75.0979 11.167H75.0199C74.6294 10.4642 73.6924 9.7614 73.2239 9.44903C72.0914 8.7462 70.7639 8.3948 69.3584 8.3948C65.1414 8.3948 61.7054 11.9089 61.7054 16.2039V26.7073H65.6099V16.2039C65.6099 14.0954 67.2889 12.3384 69.3974 12.3384C71.4667 12.3384 73.1847 14.0564 73.1847 16.2039V26.7073H77.0504V16.2039C77.0504 14.0954 78.7292 12.3384 80.8377 12.3384C82.9072 12.3384 84.6252 14.0564 84.6252 16.2039V26.7073H88.5297V16.2039C88.4127 11.8698 84.9767 8.3948 80.7597 8.3948ZM173.571 26.7073C169.822 26.7073 166.816 24.3644 166.816 20.0304V3.82647H170.603V19.718C170.603 21.8265 171.775 22.8807 173.571 22.8807V26.7073ZM226.048 23.3102C223.666 23.3102 221.128 21.6703 221.128 18.039C221.128 14.4078 223.666 12.7679 226.048 12.7679C228.43 12.7679 230.968 14.4078 230.968 18.039C230.929 21.6703 228.391 23.3102 226.048 23.3102ZM234.911 18C234.911 12.4946 230.851 8.94145 226.048 8.94145C221.48 8.94145 217.536 12.1822 217.185 17.2191V35.922H220.855V24.5206C222.378 26.7463 225.345 27.0195 226.321 27.0585H226.673H226.634C230.812 26.9805 234.911 23.5445 234.911 18ZM204.964 23.2712C202.582 23.2712 200.044 21.6312 200.044 18C200.044 14.3688 202.582 12.7289 204.964 12.7289C207.345 12.7289 209.883 14.3688 209.883 18C209.844 21.6703 207.306 23.2712 204.964 23.2712ZM213.71 18C213.71 12.2993 209.454 8.94145 204.69 8.94145C199.927 8.94145 196.061 12.6898 196.061 18C196.061 23.154 199.692 26.8243 204.261 27.0585H204.612C205.159 27.0585 206.057 26.9805 207.111 26.59C207.384 26.512 207.619 26.3558 207.892 26.2385C208.634 25.8483 209.415 25.3015 210.117 24.5206H210.196L213.163 27.0195H213.71V18ZM184.543 12.6117C186.924 12.6117 188.642 14.0174 189.345 15.9306H179.818C180.521 13.9393 182.239 12.6117 184.543 12.6117ZM188.681 21.1236C187.783 22.4121 186.3 23.1931 184.543 23.1931C181.849 23.1931 180.013 21.475 179.545 19.2104H193.367C193.406 18.82 193.445 18.3904 193.445 18C193.445 13.0022 189.462 8.9024 184.543 8.9024C179.623 8.9024 175.64 13.0022 175.64 18C175.64 22.9978 179.623 27.0975 184.543 27.0975C187.822 27.0975 190.634 25.3015 192.196 22.6464L188.681 21.1236ZM120.937 23.0759C118.556 23.0759 116.018 21.436 116.018 17.8048C116.018 14.1735 118.556 12.5336 120.937 12.5336C123.319 12.5336 125.896 14.1735 125.896 17.8048C125.935 21.475 123.358 23.0759 120.937 23.0759ZM129.801 17.7657C129.801 12.2603 125.701 8.78525 120.937 8.78525C116.174 8.78525 112.074 12.3384 112.074 17.8438C112.074 23.3883 116.174 26.9415 120.664 26.9415H121.172C122.655 26.7852 124.1 26.1995 125.232 25.1845L125.467 24.9501C125.74 24.6378 125.935 24.2473 126.013 23.8959V26.629C126.013 26.629 126.091 28.6595 124.764 30.2213C123.827 31.3927 122.343 31.9783 120.976 31.9783C119.219 31.9783 117.306 31.0413 116.486 29.089L112.855 30.6117C114.261 33.8525 117.384 35.8047 120.898 35.8047C125.701 35.8047 129.762 32.2518 129.762 26.7463L129.801 17.7657ZM42.9634 13.3926C40.9722 5.70065 34.1002 0 25.9397 0C17.7792 0 10.9072 5.70065 8.91583 13.3926C4.85511 16.9848 1.96573 21.7093 0.638184 26.9415C3.52756 25.9263 6.49501 25.1063 9.54056 24.5597C12.1176 31.2755 18.482 36 25.9397 36C33.4364 36 39.8009 31.2755 42.3389 24.5597C45.6187 25.1845 48.5862 25.9653 51.2412 26.9415C49.9137 21.7093 47.0242 16.9848 42.9634 13.3926ZM20.5124 13.0802C19.7315 15.6182 17.4278 17.1019 15.3974 16.4382C13.328 15.7744 12.3128 13.2365 13.0547 10.6985C13.7965 8.16052 16.1393 6.6768 18.1696 7.34058C20.2 7.9653 21.2542 10.5814 20.5124 13.0802ZM36.4039 16.4382C34.3344 17.1019 32.0699 15.5792 31.2889 13.0802C30.5079 10.5423 31.5622 8.00435 33.6317 7.34058C35.7012 6.6768 37.9657 8.19957 38.7467 10.6985C39.5667 13.2365 38.5124 15.7744 36.4039 16.4382Z" fill="black" fill-opacity="0.4"/>
</svg>
