<svg width="49" height="48" viewBox="0 0 49 48" fill="none" xmlns="http://www.w3.org/2000/svg">
<rect x="0.5" width="48" height="48" rx="6" fill="#1B40B3"/>
<path fill-rule="evenodd" clip-rule="evenodd" d="M27.1152 13.5949C27.4165 13.7629 27.5643 14.1146 27.4736 14.4473L25.482 21.75H32.75C33.0487 21.75 33.3189 21.9272 33.4379 22.2011C33.5569 22.475 33.5021 22.7934 33.2983 23.0117L22.7983 34.2617C22.563 34.5139 22.186 34.573 21.8848 34.4051C21.5836 34.2371 21.4357 33.8854 21.5264 33.5527L23.5181 26.25H16.25C15.9514 26.25 15.6812 26.0728 15.5622 25.7989C15.4431 25.525 15.498 25.2066 15.7017 24.9883L26.2017 13.7383C26.437 13.4861 26.814 13.427 27.1152 13.5949Z" fill="white"/>
</svg>
