<svg width="141" height="36" viewBox="0 0 141 36" fill="none" xmlns="http://www.w3.org/2000/svg">
<path fill-rule="evenodd" clip-rule="evenodd" d="M61.4572 23.8979V5.56477C61.4572 2.50325 58.9717 0 55.8922 0H5.9532C2.89168 0 0.388428 2.48524 0.388428 5.56477V23.8979C0.388428 26.9595 2.87367 29.4627 5.9532 29.4627H42.1152L51.9122 36L49.9492 29.4627H55.9282C58.9717 29.4447 61.4749 26.9595 61.4572 23.8979ZM10.9417 18.4232C11.2299 18.9275 11.608 19.3237 12.0943 19.5758C12.5805 19.8459 13.1028 19.972 13.6971 19.972C14.2914 19.972 14.8317 19.8279 15.3179 19.5578C15.8041 19.2696 16.2003 18.8734 16.4705 18.3692C16.7586 17.8469 16.9027 17.2706 16.9027 16.6043V8.37418C16.9027 8.24813 16.9387 8.15808 17.0107 8.08605C17.0828 8.014 17.1728 7.978 17.2989 7.978H19.2979C19.424 7.978 19.532 8.014 19.604 8.08605C19.6401 8.12205 19.6761 8.17607 19.6941 8.2121C19.7121 8.26612 19.7301 8.32015 19.7121 8.37418V16.5863C19.7121 17.9009 19.442 18.9995 18.9017 19.9C18.3614 20.7824 17.6411 21.4487 16.7406 21.8629C15.8402 22.2951 14.8136 22.4932 13.6971 22.4932C12.5805 22.4932 11.572 22.2771 10.6536 21.8449C9.7351 21.4127 9.01475 20.7464 8.47448 19.8639C7.9342 18.9815 7.66408 17.8829 7.66408 16.5683V8.37418C7.66408 8.26612 7.70008 8.17607 7.77213 8.10405C7.80813 8.06802 7.84415 8.03203 7.88018 8.014C7.9162 7.996 7.97023 7.978 8.02425 7.978H10.1313C10.2574 7.978 10.3654 8.014 10.4195 8.08605C10.4735 8.15808 10.5095 8.24813 10.5095 8.37418V16.6043C10.5095 17.3067 10.6536 17.919 10.9417 18.4232ZM21.603 19.8459C21.603 19.9 21.6211 19.972 21.6391 20.026C21.6751 20.098 21.7111 20.1701 21.7471 20.2421C22.1973 20.9445 22.8096 21.5028 23.566 21.899C24.3224 22.2952 25.1868 22.4932 26.1414 22.4932C26.8977 22.4932 27.6359 22.3492 28.3384 22.0791C29.0407 21.7909 29.5989 21.3767 30.0492 20.8004C30.4814 20.2421 30.6977 19.5578 30.6977 18.7474C30.6977 17.901 30.4274 17.1266 29.8872 16.4602C29.3469 15.7759 28.5364 15.2896 27.4379 14.9475C27.2939 14.8935 27.1679 14.8574 27.0417 14.8214C26.9157 14.7854 26.8077 14.7494 26.7177 14.7314C26.1774 14.5873 25.7812 14.4612 25.5289 14.3532C25.2769 14.2451 25.0608 14.1191 24.9167 13.975C24.7546 13.8129 24.6826 13.6148 24.6826 13.3447C24.6826 13.0025 24.8267 12.7324 25.1148 12.5162C25.4029 12.3001 25.7992 12.1921 26.3034 12.1921C26.7897 12.1921 27.1859 12.2822 27.5099 12.4442C27.8342 12.6063 28.1402 12.8765 28.4464 13.2186C28.5544 13.3447 28.6447 13.4167 28.7527 13.4167C28.8247 13.4167 28.9147 13.3807 29.0047 13.2907L30.1392 12.3542C30.2654 12.2461 30.3374 12.1561 30.3374 12.066C30.3374 11.994 30.2834 11.886 30.1934 11.7419C29.7612 11.2016 29.2209 10.7334 28.5724 10.3732C27.9242 9.995 27.1499 9.8149 26.2314 9.8149C25.3849 9.8149 24.6466 9.977 23.9982 10.3191C23.3499 10.6613 22.8637 11.0936 22.5035 11.6338C22.1613 12.1741 21.9812 12.7143 21.9812 13.2726C21.9812 13.957 22.1073 14.5513 22.3774 15.0375C22.6476 15.5238 23.0438 15.938 23.584 16.2801C24.1243 16.6223 24.8267 16.9285 25.7092 17.1986C26.0872 17.3067 26.3214 17.3787 26.3754 17.3967C26.8077 17.5228 27.1317 17.6308 27.3299 17.7208C27.5459 17.8109 27.7082 17.919 27.8162 18.0811C27.9422 18.2431 27.9962 18.4592 27.9962 18.7474C27.9962 19.0175 27.8882 19.2696 27.6902 19.4858C27.4739 19.7019 27.2219 19.8639 26.8977 19.99C26.5914 20.098 26.2494 20.1701 25.9252 20.1701C25.3849 20.1701 24.9347 20.044 24.5745 19.7919C24.2143 19.5398 23.8722 19.1976 23.566 18.7654C23.458 18.6213 23.3499 18.5493 23.2239 18.5493C23.1518 18.5493 23.0798 18.5853 23.0077 18.6213L21.7651 19.5037C21.6571 19.6118 21.603 19.7198 21.603 19.8459ZM41.9352 18.8194C42.0432 18.8194 42.1152 18.8554 42.1694 18.9455L43.1599 20.1521C43.2319 20.2601 43.2859 20.3502 43.2859 20.4402C43.2859 20.5483 43.2319 20.6383 43.1419 20.7284C42.4214 21.3587 41.7192 21.8089 40.9987 22.097C40.2964 22.3672 39.5219 22.5112 38.7117 22.5112C37.6129 22.5112 36.5684 22.2231 35.5959 21.6648C34.6234 21.0886 33.8492 20.3322 33.2729 19.3597C32.6967 18.3872 32.4084 17.3427 32.4084 16.2081C32.4084 15.0555 32.6787 13.993 33.2189 13.0385C33.7592 12.066 34.4974 11.3096 35.4519 10.7334C36.4064 10.1571 37.4689 9.88695 38.6394 9.88695C39.5939 9.88695 40.5304 10.121 41.4669 10.5893C42.4034 11.0575 43.1779 11.7599 43.7902 12.7143C44.4024 13.6688 44.7087 14.8394 44.7087 16.2261C44.7087 16.5323 44.6727 16.7664 44.6004 16.9104C44.5284 17.0545 44.4204 17.1446 44.3124 17.1626C44.1864 17.1986 43.9882 17.2166 43.7362 17.1986H35.0917C35.2179 17.7749 35.4699 18.2792 35.8122 18.7113C36.1544 19.1436 36.5864 19.4858 37.0907 19.7199C37.5949 19.954 38.1352 20.08 38.7117 20.08C39.1619 20.08 39.5399 20.026 39.8822 19.936C40.2064 19.8459 40.4764 19.7379 40.6927 19.6118C40.9447 19.4677 41.1789 19.3056 41.3949 19.1256L41.6832 18.9095C41.7732 18.8374 41.8632 18.8194 41.9352 18.8194ZM37.1629 12.5703C36.6947 12.8044 36.2984 13.1286 35.9562 13.5248C35.6139 13.9209 35.3619 14.3712 35.1819 14.8755H42.0432C41.7552 14.083 41.3049 13.4347 40.7107 12.9485C40.1162 12.4622 39.4139 12.2281 38.6394 12.2281C38.1352 12.2101 37.6309 12.3362 37.1629 12.5703ZM48.7067 9.977H47.3199C47.0677 9.977 46.9417 10.121 46.9417 10.3912V21.881C46.9417 22.1511 47.0677 22.2771 47.3199 22.2771H49.3009C49.5709 22.2771 49.6972 22.1511 49.6972 21.881V15.1456C49.6972 14.5333 49.8052 14.029 50.0392 13.6148C50.2734 13.2006 50.5614 12.8945 50.9397 12.6964C51.2999 12.4983 51.6962 12.3902 52.1102 12.3902C52.5244 12.3902 52.9027 12.4622 53.2629 12.6063C53.6229 12.7684 53.9652 12.9485 54.2894 13.1646C54.3974 13.2366 54.5054 13.2907 54.5954 13.2907C54.7037 13.2907 54.7757 13.2366 54.8657 13.1286L55.7662 11.8499C55.8382 11.7599 55.8742 11.6698 55.8742 11.5798C55.8742 11.4537 55.8022 11.3277 55.6582 11.1836C55.2979 10.8774 54.8297 10.5713 54.2534 10.2831C53.6952 9.995 53.0827 9.85093 52.4164 9.85093C51.8042 9.85093 51.2459 9.995 50.7417 10.2831C50.2374 10.5713 49.8232 10.9675 49.4989 11.4897L49.3009 10.4272C49.2649 10.2291 49.2109 10.103 49.1027 10.049C49.0127 9.995 48.8867 9.977 48.7067 9.977Z" fill="black" fill-opacity="0.4"/>
<path d="M65.0046 7.97803H75.3059C75.5579 7.97803 75.6842 8.1041 75.6842 8.35623V10.1751C75.6842 10.4273 75.5579 10.5713 75.3059 10.5713H71.5059V21.899C71.5059 22.1511 71.3799 22.2772 71.1276 22.2772H69.0566C68.8046 22.2772 68.6787 22.1511 68.6787 21.899V10.5533H64.9866C64.7346 10.5533 64.6084 10.4273 64.6084 10.1571V8.35623C64.6264 8.1041 64.7526 7.97803 65.0046 7.97803Z" fill="black" fill-opacity="0.4"/>
<path d="M84.8866 18.8197C84.9946 18.8197 85.0666 18.8557 85.1206 18.9457L86.1111 20.1524C86.1831 20.2604 86.2371 20.3504 86.2371 20.4405C86.2371 20.5485 86.1831 20.6386 86.0931 20.7286C85.3729 21.359 84.6704 21.8092 83.9501 22.0973C83.2296 22.3855 82.4734 22.5115 81.6629 22.5115C80.5644 22.5115 79.5199 22.2234 78.5474 21.6651C77.5749 21.0888 76.8006 20.3324 76.2241 19.36C75.6479 18.3875 75.3599 17.3429 75.3599 16.2084C75.3599 15.0558 75.6299 13.9933 76.1701 13.0388C76.7104 12.0663 77.4489 11.3099 78.4034 10.7336C79.3579 10.1574 80.4204 9.88721 81.5909 9.88721C82.5454 9.88721 83.4999 10.1213 84.4184 10.5896C85.3549 11.0578 86.1291 11.7602 86.7414 12.7146C87.3539 13.6691 87.6599 14.8397 87.6599 16.2264C87.6599 16.5325 87.6239 16.7667 87.5519 16.9107C87.4799 17.0548 87.3719 17.1448 87.2639 17.1629C87.1376 17.1989 86.9396 17.2169 86.6874 17.2169H78.0611C78.1871 17.7932 78.4394 18.2974 78.7816 18.7296C79.1236 19.1619 79.5559 19.504 80.0601 19.7381C80.5644 19.9723 81.1046 20.0983 81.6989 20.0983C82.1491 20.0983 82.5274 20.0443 82.8696 19.9543C83.1936 19.8642 83.4639 19.7562 83.6799 19.6301C83.9321 19.486 84.1661 19.3239 84.3824 19.1438L84.6704 18.9277C84.7064 18.8377 84.7966 18.8197 84.8866 18.8197ZM80.0961 12.5706C79.6279 12.8047 79.2316 13.1288 78.8896 13.525C78.5474 13.9212 78.2954 14.3715 78.1151 14.8757H84.9946C84.7064 14.0833 84.2564 13.435 83.6619 12.9487C83.0676 12.4625 82.3654 12.2284 81.5729 12.2284C81.0686 12.2104 80.5464 12.3364 80.0961 12.5706Z" fill="black" fill-opacity="0.4"/>
<path d="M88.4884 20.0259C88.4704 19.9718 88.4524 19.8998 88.4524 19.8458C88.4524 19.7197 88.5064 19.6117 88.6146 19.5036L89.8391 18.5671C89.8931 18.5131 89.9651 18.4771 90.0554 18.4951C90.1814 18.4951 90.3074 18.5671 90.3974 18.7112C90.7036 19.1434 91.0459 19.4856 91.4059 19.7377C91.7661 19.9898 92.2164 20.1159 92.7566 20.1159C93.0989 20.1159 93.4229 20.0619 93.7291 19.9358C94.0534 19.8098 94.3234 19.6477 94.5214 19.4316C94.7196 19.2155 94.8276 18.9633 94.8276 18.6932C94.8276 18.4051 94.7736 18.1889 94.6476 18.0269C94.5214 17.8648 94.3594 17.7567 94.1614 17.6667C93.9631 17.5766 93.6391 17.4686 93.2069 17.3425C93.1349 17.3245 92.9186 17.2705 92.5406 17.1444C91.6581 16.8743 90.9556 16.5681 90.4154 16.226C89.8751 15.8838 89.4789 15.4696 89.2089 14.9833C88.9386 14.4971 88.8126 13.9028 88.8126 13.2185C88.8126 12.6602 88.9926 12.1199 89.3349 11.5796C89.6771 11.0394 90.1814 10.6072 90.8296 10.265C91.4779 9.92282 92.2164 9.76074 93.0629 9.76074C93.9631 9.76074 94.7556 9.94082 95.4039 10.319C96.0524 10.6972 96.5926 11.1474 97.0249 11.6877C97.1329 11.8138 97.1689 11.9218 97.1689 12.0119C97.1689 12.1019 97.0969 12.21 96.9706 12.3L95.8361 13.2365C95.7281 13.3085 95.6561 13.3625 95.5841 13.3625C95.4939 13.3625 95.3859 13.2905 95.2779 13.1644C94.9896 12.8223 94.6656 12.5701 94.3414 12.39C94.0171 12.228 93.6031 12.1379 93.1349 12.1379C92.6306 12.1379 92.2344 12.246 91.9461 12.4621C91.6581 12.6782 91.5139 12.9483 91.5139 13.2905C91.5139 13.5606 91.5861 13.7587 91.7481 13.9208C91.9101 14.0829 92.1084 14.209 92.3604 14.299C92.6126 14.4071 93.0266 14.5151 93.5491 14.6772C93.6571 14.6952 93.7651 14.7312 93.8731 14.7672C93.9991 14.8033 94.1254 14.8393 94.2694 14.8933C95.3679 15.2175 96.1784 15.7217 96.7186 16.4061C97.2589 17.0904 97.5289 17.8468 97.5289 18.6932C97.5289 19.4856 97.3129 20.1699 96.8806 20.7462C96.4484 21.3045 95.8721 21.7367 95.1699 22.0249C94.4674 22.313 93.7291 22.4571 92.9726 22.4391C92.0181 22.4391 91.1539 22.241 90.3974 21.8448C89.6411 21.4486 89.0469 20.8903 88.5786 20.1879C88.5606 20.1699 88.5246 20.0979 88.4884 20.0259Z" fill="black" fill-opacity="0.4"/>
<path d="M104.138 10.0673C104.408 10.0673 104.552 10.2114 104.552 10.4815V12.0663C104.552 12.1924 104.516 12.3004 104.426 12.3725C104.336 12.4445 104.228 12.4805 104.102 12.4805H102.716V18.4775C102.716 18.9097 102.788 19.2519 102.95 19.522C103.112 19.7742 103.382 19.9182 103.76 19.9363L104.066 19.9543C104.282 19.9723 104.426 20.0263 104.48 20.1344C104.534 20.2424 104.57 20.3685 104.552 20.4945V21.8632C104.552 22.1874 104.3 22.3495 103.814 22.3495C103.058 22.3495 102.391 22.2054 101.815 21.9172C101.221 21.6291 100.771 21.2149 100.446 20.6746C100.122 20.1344 99.9602 19.504 99.9602 18.7837V12.4985H98.8437C98.7357 12.4985 98.6274 12.4625 98.5554 12.3905C98.4654 12.3184 98.4294 12.2104 98.4294 12.0843V10.5175C98.4294 10.3735 98.4654 10.2654 98.5554 10.1754C98.6274 10.1033 98.7357 10.0673 98.8437 10.0673H99.9602V8.05032C99.9602 7.90624 99.9782 7.81619 100.032 7.74417C100.086 7.67212 100.194 7.63612 100.338 7.58209L102.301 7.00579C102.337 6.98779 102.373 6.98779 102.409 6.98779C102.445 6.98779 102.499 7.00579 102.535 7.02379C102.571 7.04182 102.607 7.07784 102.625 7.11384C102.68 7.18589 102.698 7.29394 102.698 7.41999V10.0493L104.138 10.0673Z" fill="black" fill-opacity="0.4"/>
<path d="M107.182 5.58301H108.857C109.217 5.58301 109.397 5.78111 109.397 6.19533V7.88816C109.397 8.08626 109.361 8.23033 109.271 8.30238C109.181 8.37441 109.037 8.42843 108.857 8.42843H107.182C106.786 8.42843 106.587 8.24836 106.587 7.88816V6.19533C106.587 5.78111 106.786 5.58301 107.182 5.58301ZM106.786 10.0853C106.858 10.0132 106.948 9.97721 107.056 9.97721H109.091C109.199 9.97721 109.289 10.0132 109.361 10.0853C109.433 10.1573 109.469 10.2474 109.469 10.3734V21.8812C109.469 22.1333 109.343 22.2774 109.091 22.2774H107.056C106.804 22.2774 106.678 22.1513 106.678 21.8812V10.3734C106.678 10.2474 106.714 10.1573 106.786 10.0853Z" fill="black" fill-opacity="0.4"/>
<path d="M114.223 22.1693C114.115 22.2413 113.971 22.2773 113.845 22.2773H112.08C111.81 22.2773 111.666 22.1333 111.666 21.8631V10.3734C111.666 10.1032 111.81 9.95917 112.08 9.95917H113.377C113.503 9.95917 113.647 10.0132 113.737 10.1032C113.845 10.1933 113.917 10.3194 113.953 10.4454L114.115 11.8321C114.584 11.1658 115.142 10.6795 115.808 10.3554C116.475 10.0312 117.195 9.86914 117.933 9.86914C118.672 9.86914 119.392 10.0492 120.094 10.4274C120.797 10.8056 121.373 11.3819 121.841 12.1563C122.292 12.9307 122.526 13.9031 122.526 15.0557V21.8451C122.526 22.1153 122.4 22.2413 122.147 22.2413H120.22C119.95 22.2413 119.806 22.1153 119.806 21.8451V15.1458C119.806 14.6775 119.698 14.2453 119.464 13.8311C119.23 13.4169 118.906 13.0747 118.51 12.8226C118.095 12.5705 117.645 12.4444 117.141 12.4444C116.709 12.4444 116.277 12.5525 115.862 12.7866C115.43 13.0207 115.088 13.3449 114.818 13.7771C114.548 14.2093 114.404 14.7135 114.404 15.2718V21.8271C114.386 21.9892 114.332 22.0792 114.223 22.1693Z" fill="black" fill-opacity="0.4"/>
<path d="M135.888 23.4297C135.348 24.4022 134.628 25.1405 133.691 25.6448C132.755 26.149 131.674 26.3832 130.468 26.3832C129.657 26.3832 128.865 26.239 128.091 25.969C127.298 25.6987 126.632 25.3208 126.074 24.8524C125.965 24.7624 125.911 24.6723 125.911 24.5643C125.911 24.4922 125.947 24.4022 126.037 24.2761L126.848 23.1055C126.938 22.9795 127.046 22.9074 127.19 22.9074C127.298 22.9074 127.406 22.9435 127.532 23.0335C128.379 23.6278 129.423 23.9159 130.702 23.9159C131.35 23.9159 131.926 23.7719 132.431 23.4837C132.935 23.2136 133.349 22.7994 133.619 22.2951C133.907 21.7909 134.051 21.2146 134.051 20.5662V20.5303C133.511 21.1065 132.935 21.5388 132.341 21.8269C131.746 22.115 131.044 22.2591 130.252 22.2591C129.189 22.2591 128.181 22.007 127.262 21.4667C126.326 20.9444 125.587 20.2061 125.029 19.2696C124.471 18.3331 124.183 17.2706 124.201 16.082C124.201 14.9655 124.471 13.9209 125.029 12.9664C125.587 12.012 126.326 11.2376 127.262 10.6613C128.199 10.085 129.189 9.79688 130.252 9.79688C131.782 9.79688 133.097 10.3912 134.196 11.5618L134.358 10.4272C134.375 10.2471 134.43 10.121 134.502 10.049C134.574 9.97697 134.682 9.94095 134.826 9.94095H136.374C136.609 9.94095 136.735 10.085 136.735 10.3552V19.8099C136.681 21.2686 136.411 22.4572 135.888 23.4297ZM133.619 14.2271C133.295 13.6508 132.863 13.1826 132.305 12.8404C131.746 12.4982 131.134 12.3181 130.432 12.3181C129.711 12.3181 129.081 12.4982 128.523 12.8404C127.964 13.1826 127.55 13.6508 127.226 14.2451C126.92 14.8394 126.758 15.4697 126.758 16.1721C126.758 16.9104 126.92 17.5587 127.244 18.135C127.568 18.7113 128.018 19.1616 128.577 19.4857C129.135 19.8099 129.765 19.972 130.45 19.972C131.134 19.972 131.746 19.8099 132.287 19.4677C132.827 19.1255 133.259 18.6573 133.583 18.081C133.889 17.4867 134.051 16.8564 134.051 16.1721C134.088 15.4517 133.925 14.8034 133.619 14.2271Z" fill="black" fill-opacity="0.4"/>
<path d="M139.022 9.97705C138.247 9.97705 137.617 10.6074 137.617 11.3818C137.617 12.1562 138.247 12.7865 139.022 12.7865C139.796 12.7865 140.426 12.1562 140.426 11.3818C140.426 10.6254 139.796 9.97705 139.022 9.97705ZM139.022 12.4983C138.427 12.4983 137.923 11.9941 137.923 11.3818C137.923 10.7695 138.427 10.2652 139.022 10.2652C139.616 10.2652 140.12 10.7515 140.12 11.3818C140.12 11.9941 139.616 12.4983 139.022 12.4983Z" fill="black" fill-opacity="0.4"/>
<path d="M138.482 10.6254C138.482 10.6254 138.5 10.6074 138.518 10.6074H139.166C139.256 10.6074 139.346 10.6254 139.418 10.6794C139.49 10.7335 139.544 10.7875 139.598 10.8595C139.634 10.9316 139.67 11.0216 139.67 11.1117C139.67 11.2017 139.652 11.2737 139.598 11.3638C139.544 11.4358 139.49 11.5079 139.4 11.5439L139.688 12.1022V12.1202V12.1382H139.67H139.4C139.382 12.1382 139.382 12.1382 139.364 12.1382C139.364 12.1382 139.346 12.1202 139.346 12.1022L139.094 11.5979H138.788V12.0841C138.788 12.1202 138.77 12.1202 138.752 12.1202H138.536C138.5 12.1202 138.5 12.1022 138.5 12.0841V10.6254C138.464 10.6434 138.464 10.6254 138.482 10.6254ZM138.77 11.3638H139.094C139.148 11.3638 139.184 11.3458 139.22 11.3278C139.256 11.3098 139.292 11.2737 139.31 11.2377C139.328 11.2017 139.346 11.1657 139.346 11.1117C139.346 11.0756 139.328 11.0216 139.31 10.9856C139.292 10.9496 139.256 10.9136 139.22 10.8956C139.184 10.8775 139.148 10.8595 139.094 10.8595H138.77V11.3638Z" fill="black" fill-opacity="0.4"/>
</svg>
